REM DIRINDEX 1\2\6,1\2\7,1\2\8,1\3\9,1\3\10,1\3\11,1\4\12,1\4\13,1\4\14,1\5\15,1\5\16,1\5\17,1\5\18
REM DIRNAME cjc019,folder01,folder02,folder03,folder04,folder05,folder06,folder07,folder08,folder09,folder10,folder11,folder12,folder13,folder14,folder15,folder16,folder17
TITLE ""
FILE "2Q_j_1597-1610.mp3" MP3
  TRACK 01 AUDIO
    TITLE "6:cjc019_1254"
    INDEX 01 00:00:00
  TRACK 02 AUDIO
    TITLE "0:"
    INDEX 01 00:01:56
  TRACK 03 AUDIO
    TITLE "7:cjc019_1255"
    INDEX 01 00:02:40
  TRACK 04 AUDIO
    TITLE "0:"
    INDEX 01 00:06:02
  TRACK 05 AUDIO
    TITLE "8:cjc019_1256"
    INDEX 01 00:06:55
  TRACK 06 AUDIO
    TITLE "0:"
    INDEX 01 00:10:12
  TRACK 07 AUDIO
    TITLE "6:cjc019_1257"
    INDEX 01 00:10:66
  TRACK 08 AUDIO
    TITLE "0:"
    INDEX 01 00:12:50
  TRACK 09 AUDIO
    TITLE "7:cjc019_1258"
    INDEX 01 00:13:28
  TRACK 10 AUDIO
    TITLE "0:"
    INDEX 01 00:15:11
  TRACK 11 AUDIO
    TITLE "8:cjc019_1259"
    INDEX 01 00:15:74
  TRACK 12 AUDIO
    TITLE "0:"
    INDEX 01 00:20:36
  TRACK 13 AUDIO
    TITLE "6:cjc019_1260"
    INDEX 01 00:21:09
  TRACK 14 AUDIO
    TITLE "0:"
    INDEX 01 00:22:74
  TRACK 15 AUDIO
    TITLE "7:cjc019_1261"
    INDEX 01 00:23:53
  TRACK 16 AUDIO
    TITLE "0:"
    INDEX 01 00:28:62
  TRACK 17 AUDIO
    TITLE "8:cjc019_1262"
    INDEX 01 00:29:40
  TRACK 18 AUDIO
    TITLE "0:"
    INDEX 01 00:33:11
  TRACK 19 AUDIO
    TITLE "6:cjc019_1263"
    INDEX 01 00:33:69
  TRACK 20 AUDIO
    TITLE "0:"
    INDEX 01 00:35:66
  TRACK 21 AUDIO
    TITLE "7:cjc019_1264"
    INDEX 01 00:36:42
  TRACK 22 AUDIO
    TITLE "0:"
    INDEX 01 00:40:44
  TRACK 23 AUDIO
    TITLE "8:cjc019_1265"
    INDEX 01 00:41:18
  TRACK 24 AUDIO
    TITLE "0:"
    INDEX 01 00:44:50
  TRACK 25 AUDIO
    TITLE "6:cjc019_1266"
    INDEX 01 00:45:22
  TRACK 26 AUDIO
    TITLE "0:"
    INDEX 01 00:46:62
  TRACK 27 AUDIO
    TITLE "7:cjc019_1267"
    INDEX 01 00:47:44
  TRACK 28 AUDIO
    TITLE "0:"
    INDEX 01 00:50:05
  TRACK 29 AUDIO
    TITLE "8:cjc019_1268"
    INDEX 01 00:50:60
  TRACK 30 AUDIO
    TITLE "0:"
    INDEX 01 00:53:68
  TRACK 31 AUDIO
    TITLE "6:cjc019_1269"
    INDEX 01 00:54:48
  TRACK 32 AUDIO
    TITLE "0:"
    INDEX 01 00:56:08
  TRACK 33 AUDIO
    TITLE "7:cjc019_1270"
    INDEX 01 00:56:65
  TRACK 34 AUDIO
    TITLE "0:"
    INDEX 01 01:01:42
  TRACK 35 AUDIO
    TITLE "8:cjc019_1271"
    INDEX 01 01:02:20
  TRACK 36 AUDIO
    TITLE "0:"
    INDEX 01 01:05:66
  TRACK 37 AUDIO
    TITLE "6:cjc019_1272"
    INDEX 01 01:06:47
  TRACK 38 AUDIO
    TITLE "0:"
    INDEX 01 01:08:62
  TRACK 39 AUDIO
    TITLE "7:cjc019_1273"
    INDEX 01 01:09:36
  TRACK 40 AUDIO
    TITLE "0:"
    INDEX 01 01:12:30
  TRACK 41 AUDIO
    TITLE "8:cjc019_1274"
    INDEX 01 01:13:06
  TRACK 42 AUDIO
    TITLE "0:"
    INDEX 01 01:15:60
  TRACK 43 AUDIO
    TITLE "6:cjc019_1275"
    INDEX 01 01:16:44
  TRACK 44 AUDIO
    TITLE "0:"
    INDEX 01 01:18:33
  TRACK 45 AUDIO
    TITLE "7:cjc019_1276"
    INDEX 01 01:19:27
  TRACK 46 AUDIO
    TITLE "0:"
    INDEX 01 01:23:15
  TRACK 47 AUDIO
    TITLE "8:cjc019_1277"
    INDEX 01 01:23:71
  TRACK 48 AUDIO
    TITLE "0:"
    INDEX 01 01:27:08
  TRACK 49 AUDIO
    TITLE "6:cjc019_1278"
    INDEX 01 01:27:65
  TRACK 50 AUDIO
    TITLE "0:"
    INDEX 01 01:29:50
  TRACK 51 AUDIO
    TITLE "7:cjc019_1279"
    INDEX 01 01:30:38
  TRACK 52 AUDIO
    TITLE "0:"
    INDEX 01 01:32:08
  TRACK 53 AUDIO
    TITLE "8:cjc019_1280"
    INDEX 01 01:32:62
  TRACK 54 AUDIO
    TITLE "0:"
    INDEX 01 01:35:73
  TRACK 55 AUDIO
    TITLE "6:cjc019_1281"
    INDEX 01 01:36:56
  TRACK 56 AUDIO
    TITLE "0:"
    INDEX 01 01:38:08
  TRACK 57 AUDIO
    TITLE "7:cjc019_1282"
    INDEX 01 01:38:59
  TRACK 58 AUDIO
    TITLE "0:"
    INDEX 01 01:40:36
  TRACK 59 AUDIO
    TITLE "8:cjc019_1283"
    INDEX 01 01:41:14
  TRACK 60 AUDIO
    TITLE "0:"
    INDEX 01 01:44:21
  TRACK 61 AUDIO
    TITLE "6:cjc019_1284"
    INDEX 01 01:45:02
  TRACK 62 AUDIO
    TITLE "0:"
    INDEX 01 01:46:57
  TRACK 63 AUDIO
    TITLE "7:cjc019_1285"
    INDEX 01 01:47:40
  TRACK 64 AUDIO
    TITLE "0:"
    INDEX 01 01:49:69
  TRACK 65 AUDIO
    TITLE "8:cjc019_1286"
    INDEX 01 01:50:47
  TRACK 66 AUDIO
    TITLE "0:"
    INDEX 01 01:53:29
  TRACK 67 AUDIO
    TITLE "6:cjc019_1287"
    INDEX 01 01:54:03
  TRACK 68 AUDIO
    TITLE "0:"
    INDEX 01 01:55:60
  TRACK 69 AUDIO
    TITLE "7:cjc019_1288"
    INDEX 01 01:56:37
  TRACK 70 AUDIO
    TITLE "0:"
    INDEX 01 01:58:30
  TRACK 71 AUDIO
    TITLE "8:cjc019_1289"
    INDEX 01 01:59:08
  TRACK 72 AUDIO
    TITLE "0:"
    INDEX 01 02:02:30
  TRACK 73 AUDIO
    TITLE "6:cjc019_1290"
    INDEX 01 02:03:12
  TRACK 74 AUDIO
    TITLE "0:"
    INDEX 01 02:05:54
  TRACK 75 AUDIO
    TITLE "7:cjc019_1291"
    INDEX 01 02:06:42
  TRACK 76 AUDIO
    TITLE "0:"
    INDEX 01 02:09:44
  TRACK 77 AUDIO
    TITLE "8:cjc019_1292"
    INDEX 01 02:10:28
  TRACK 78 AUDIO
    TITLE "0:"
    INDEX 01 02:13:24
  TRACK 79 AUDIO
    TITLE "6:cjc019_1293"
    INDEX 01 02:14:10
  TRACK 80 AUDIO
    TITLE "0:"
    INDEX 01 02:15:68
  TRACK 81 AUDIO
    TITLE "7:cjc019_1294"
    INDEX 01 02:16:48
  TRACK 82 AUDIO
    TITLE "0:"
    INDEX 01 02:18:08
  TRACK 83 AUDIO
    TITLE "8:cjc019_1295"
    INDEX 01 02:18:65
  TRACK 84 AUDIO
    TITLE "0:"
    INDEX 01 02:21:57
